<svg xmlns="http://www.w3.org/2000/svg" xmlns:xlink="http://www.w3.org/1999/xlink" width="100" height="200" viewBox="0 0 100 200">
  <defs>
    <style>
      .cls-1, .cls-3 {
        fill: #343436;
        fill-opacity: 0;
        stroke-linejoin: round;
        stroke-width: 4px;
      }

      .cls-1 {
        stroke: #eaeaea;
      }

      .cls-2 {
        fill: #eaeaea;
      }

      .cls-2, .cls-4 {
        fill-rule: evenodd;
      }

      .cls-3 {
        stroke: #775adf;
      }

      .cls-4 {
        filter: url(#filter);
      }
    </style>
    <filter id="filter" x="26" y="134.813" width="47.938" height="31.968" filterUnits="userSpaceOnUse">
      <feFlood result="flood" flood-color="#775adf"/>
      <feComposite result="composite" operator="in" in2="SourceGraphic"/>
      <feBlend result="blend" in2="SourceGraphic"/>
    </filter>
  </defs>
  <circle class="cls-1" cx="50.094" cy="50.094" r="48.094"/>
  <path id="Forma_1" data-name="Forma 1" class="cls-2" d="M73.647,50.111L58.666,35.136a1,1,0,0,0-1.7.706v2a1,1,0,0,0,.293.706L67.533,48.82H27a1,1,0,0,0-1,1v2a1,1,0,0,0,1,1H67.533L57.253,63.089a1,1,0,0,0-.293.706v2a1,1,0,0,0,1.7.706L73.647,51.522A1,1,0,0,0,73.647,50.111Z"/>
  <circle id="Ellipse_1_copy_2" data-name="Ellipse 1 copy 2" class="cls-3" cx="50.094" cy="150.094" r="48.094"/>
  <path id="Forma_1_copy" data-name="Forma 1 copy" class="cls-4" d="M73.647,150.111L58.666,135.136a1,1,0,0,0-1.7.706v2a1,1,0,0,0,.293.706l10.28,10.276H27a1,1,0,0,0-1,1v2a1,1,0,0,0,1,1H67.533l-10.28,10.275a1,1,0,0,0-.293.706v2a1,1,0,0,0,.616.922,0.984,0.984,0,0,0,.382.076,1,1,0,0,0,.706-0.292l14.981-14.975A1,1,0,0,0,73.647,150.111Z"/>
</svg>
